<?xml version="1.0" encoding="UTF-8" standalone="no"?>
<svg
   width="700pt"
   height="700pt"
   version="1.1"
   viewBox="0 0 700 700"
   id="svg10"
   sodipodi:docname="aka-logo.svg"
   inkscape:version="1.2 (dc2aeda, 2022-05-15)"
   inkscape:export-filename="aka-logo.png"
   inkscape:export-xdpi="105.32571"
   inkscape:export-ydpi="105.32571"
   xmlns:inkscape="http://www.inkscape.org/namespaces/inkscape"
   xmlns:sodipodi="http://sodipodi.sourceforge.net/DTD/sodipodi-0.dtd"
   xmlns="http://www.w3.org/2000/svg"
   xmlns:svg="http://www.w3.org/2000/svg">
  <defs
     id="defs14" />
  <sodipodi:namedview
     id="namedview12"
     pagecolor="#234e70"
     bordercolor="#000000"
     borderopacity="0.25"
     inkscape:showpageshadow="2"
     inkscape:pageopacity="1"
     inkscape:pagecheckerboard="0"
     inkscape:deskcolor="#d1d1d1"
     inkscape:document-units="pt"
     showgrid="false"
     inkscape:zoom="0.25285714"
     inkscape:cx="482.48588"
     inkscape:cy="181.9209"
     inkscape:window-width="1577"
     inkscape:window-height="798"
     inkscape:window-x="2812"
     inkscape:window-y="343"
     inkscape:window-maximized="0"
     inkscape:current-layer="g8" />
  <g
     id="g8"
     style="fill:#f99336;fill-opacity:1">
    <path
       d="m607.95 448.02c8.8125 0.92969 16.055 1.6953 20.66 6.5586 2.0781-5.7109 4.6484-18.098 6.3008-26.098 1.457-7.0586 2.7266-13.152 3.8477-16.895 1.9805-6.6016 2.4766-18.953 2.9609-30.895 0.36719-9.2266 0.75781-18.773 1.8281-26.277 1.3555-9.4922-0.91406-21.156-3.1016-32.438-1.5859-8.1562-3.0781-15.871-3.0781-22.305 0-14.398-8.4805-50.031-22.348-65.047-16.227-17.574-39.465-37.637-52.5-41.984-6.793-2.2617-14.766-6.1367-23.211-10.234-9.9766-4.8398-20.293-9.8359-28.098-11.797l-36.348-9.0859-2.6367-7.9219c-2.1602-1.0898-7.5977-3.4492-16.02-4.5625-1.8867-0.25-3.7734-0.36719-5.5781-0.36719-7.1328 0-10.59 1.7617-11.039 2.4023-1.2891 4.7891-2.1875 8.082-5.5039 8.082h-0.59766c-5.4023 0.22266-39.84 1.6719-47.047 2.7031-1.1953 0.16797-3 0.34766-5.2969 0.57422-12.746 1.2461-42.598 4.1641-67.18 17.219-26.461 14.059-46.051 32.797-61.652 58.961-10.051 16.859-15.438 33.23-19.762 46.383-1.7227 5.2461-3.2734 9.9414-4.8477 13.891-6.6328 16.578-10.992 29.23-14.141 41.027-1.4141 5.3047-1.9688 9.9023-2.4961 14.348-0.80469 6.668-1.5625 12.977-5.3125 18.898-0.16016 0.25781-0.32422 0.48047-0.48438 0.73828 3.375-1.3203 7.168-2.5039 11.223-3.1328 11.938-1.8203 32.812-1.4648 44.062-0.007813 8.8125 1.1484 58.004 14.098 84.426 21.043l13.078 3.4258c12.062 3.1172 61.246 11.766 82.238 15.457l8.7461 1.5391c11.746 2.0938 78.004 20.234 91.988 24.086l0.68359-0.61719 50.938 10.184c5.6758 1.125 10.789 1.6641 15.297 2.1445z"
       id="path2"
       style="fill:#f99336;fill-opacity:1" />
    <path
       d="m193.62 388.68-125.26 83.508c-4.4141 4.0742-12.379 13.043-13.129 18.324-0.40625 2.8203 0.097656 5.2539 1.0742 7.4062 0.40625-1.4141 0.85547-3 1.3711-4.832 1.4648-5.2383 8.7539-12.902 17.715-18.629 9.2383-5.918 23.344-9.7422 34.254-9.7852 9.6602 0.13281 21.848 1.4531 28.441 2.7617l7.4492 1.2539 1.832 0.64062c2.418 0.86328 59.457 21.102 76.734 30.977 16.312 9.3281 61.605 31.523 86.426 38.973 17.168 5.1445 35.484 6.2266 47.836 6.2266 8.3867 0 16.801-0.49219 24.332-1.4375 18.887-2.3672 49.16-20.527 73.484-35.125 25.938-15.562 56.125-45.234 61.918-51.027 6.293-6.293 13.617-13.109 18.09-17.219-18.73-5.1289-77.484-21.148-88.125-23.047l-8.7227-1.5391c-22.848-4.0156-70.391-12.379-82.668-15.539l-13.102-3.4336c-24.434-6.4336-75.277-19.805-83.734-20.91-10.875-1.4219-31.359-1.7305-42.516-0.007813-7.8398 1.207-15.031 4.8047-18.73 6.9102-2.4766 3.0781-4.2461 4.9219-4.375 5.0625z"
       id="path4"
       style="fill:#f99336;fill-opacity:1" />
    <path
       d="m109.57 470.2c-9.7344 0.03125-22.789 3.5312-31.207 8.9141-9.2773 5.9297-14.574 12.613-15.371 15.473-1.0703 3.8164-1.9453 6.8516-2.5195 8.8477 1.9375 1.7109 4.1484 3.0938 6.2695 4.1484 7.8633 3.9219 18.191-1.5469 34.699-10.352l1.2148-0.65625c12.461-6.6445 28.141-17.469 36.199-23.16-8.2344-1.5312-22.016-3.1172-29.285-3.2148z"
       id="path6"
       inkscape:label="path6"
       style="fill:#f99336;fill-opacity:1" />
  </g>
</svg>
